<svg width="20" height="17" viewBox="0 0 20 17" fill="none" xmlns="http://www.w3.org/2000/svg">
<path d="M19.8128 15.3259L1.12531 0.685364C1.07405 0.644237 1.01521 0.613631 0.952152 0.595292C0.889092 0.576953 0.823046 0.571242 0.757784 0.578483C0.692521 0.585724 0.629321 0.605776 0.571792 0.637495C0.514263 0.669213 0.463531 0.711977 0.422493 0.763344L0.109993 1.1545C0.0688585 1.20588 0.0382384 1.26489 0.0198847 1.32815C0.00153098 1.3914 -0.00419605 1.45767 0.0030313 1.52314C0.0102586 1.58862 0.0302985 1.65203 0.0620042 1.70974C0.0937098 1.76744 0.136459 1.81832 0.187805 1.85945L18.8753 16.5C18.9266 16.5411 18.9854 16.5717 19.0485 16.5901C19.1115 16.6084 19.1776 16.6141 19.2428 16.6069C19.3081 16.5996 19.3713 16.5796 19.4288 16.5479C19.4863 16.5162 19.5371 16.4734 19.5781 16.422L19.8906 16.0309C19.9318 15.9795 19.9624 15.9205 19.9807 15.8572C19.9991 15.794 20.0048 15.7277 19.9976 15.6622C19.9904 15.5967 19.9703 15.5333 19.9386 15.4756C19.9069 15.4179 19.8642 15.367 19.8128 15.3259ZM9.27499 5.16249L13.4872 8.46272C13.4178 6.58555 11.8903 5.08514 10.0003 5.08514C9.75651 5.0856 9.51342 5.11152 9.27499 5.16249ZM10.7256 12.0232L6.51343 8.72296C6.58312 10.5998 8.11062 12.1002 10.0003 12.1002C10.2441 12.0997 10.4871 12.0739 10.7256 12.0232ZM10.0003 4.08298C13.0831 4.08298 15.9094 5.80544 17.4356 8.59268C17.0615 9.27865 16.5992 9.91249 16.0606 10.478L17.24 11.4018C17.8966 10.6979 18.4529 9.90631 18.8931 9.0496C18.9646 8.90789 19.0019 8.75132 19.0019 8.59253C19.0019 8.43373 18.9646 8.27716 18.8931 8.13545C17.1969 4.82176 13.8419 2.57975 10.0003 2.57975C8.85343 2.57975 7.75937 2.79897 6.73062 3.16883L8.18093 4.30534C8.77281 4.17067 9.37906 4.08298 10.0003 4.08298ZM10.0003 13.1024C6.91749 13.1024 4.09156 11.3799 2.56499 8.59268C2.93961 7.90672 3.40242 7.27298 3.94156 6.70769L2.76218 5.78383C2.10566 6.48768 1.54945 7.27916 1.10937 8.13576C1.03788 8.27748 1.00064 8.43405 1.00064 8.59284C1.00064 8.75163 1.03788 8.9082 1.10937 9.04992C2.80406 12.3636 6.15906 14.6056 10.0003 14.6056C11.1472 14.6056 12.2412 14.3848 13.27 14.0165L11.8197 12.8803C11.2278 13.0147 10.6219 13.1024 10.0003 13.1024Z" fill="#888B8D"/>
</svg>
