<svg width="20" height="14" viewBox="0 0 20 14" fill="none" xmlns="http://www.w3.org/2000/svg">
<path d="M10 2.77778C9.63199 2.78354 9.2667 2.842 8.91528 2.95139C9.07783 3.23727 9.16438 3.56004 9.16667 3.8889C9.16667 4.14424 9.11637 4.39709 9.01865 4.633C8.92093 4.86892 8.77771 5.08327 8.59715 5.26383C8.41659 5.44439 8.20224 5.58761 7.96632 5.68533C7.73041 5.78305 7.47757 5.83334 7.22222 5.83334C6.89336 5.83106 6.57059 5.74451 6.28471 5.58195C6.05917 6.36418 6.08546 7.19754 6.35985 7.96399C6.63425 8.73044 7.14284 9.39113 7.8136 9.85247C8.48435 10.3138 9.28325 10.5524 10.0971 10.5345C10.911 10.5165 11.6987 10.243 12.3484 9.75256C12.9982 9.26212 13.4772 8.57968 13.7176 7.80188C13.958 7.02409 13.9475 6.19038 13.6877 5.41885C13.428 4.64732 12.932 3.97709 12.2702 3.50308C11.6083 3.02907 10.8141 2.77533 10 2.77778ZM19.8792 6.15973C17.9962 2.48577 14.2684 0 10 0C5.73159 0 2.00276 2.4875 0.120815 6.16008C0.0413845 6.3172 0 6.4908 0 6.66685C0 6.84291 0.0413845 7.0165 0.120815 7.17362C2.0038 10.8476 5.73159 13.3334 10 13.3334C14.2684 13.3334 17.9972 10.8459 19.8792 7.17328C19.9586 7.01616 20 6.84256 20 6.66651C20 6.49045 19.9586 6.31686 19.8792 6.15973ZM10 11.6667C6.57465 11.6667 3.43436 9.75696 1.73853 6.66668C3.43436 3.5764 6.5743 1.66667 10 1.66667C13.4257 1.66667 16.5656 3.5764 18.2615 6.66668C16.566 9.75696 13.4257 11.6667 10 11.6667Z" fill="#B1B3B3"/>
</svg>
